<?xml version='1.0' encoding='utf-8'?>
<svg xmlns="http://www.w3.org/2000/svg" version="1.1" width="600px" height="976px" viewBox="0 0 600 976"> <g id="layer1"> <g style="fill:rgb(0,0,0); fill-opacity:1.0; stroke-linejoin: miter"> <path d="M298.53247,482.07407C298.53973,482.0806,298.5716,482.0835,298.65195,482.08423C298.78302,482.08493,298.77362,482.0835,298.79462,482.10306C298.80908,482.1168,298.8221,482.12042,298.87064,482.1219C298.91626,482.12405,298.93292,482.1284,298.9503,482.1407C298.96188,482.14938,298.99084,482.16098,299.014,482.16678C299.0437,482.17328,299.06036,482.18198,299.0676,482.19357C299.08353,482.21747,299.12192,482.23917,299.1487,482.23917C299.16318,482.23917,299.17404,482.24426,299.17984,482.25366C299.1849,482.26163,299.19287,482.26816,299.19724,482.26816C299.20157,482.26816,299.21387,482.28046,299.224,482.2964C299.2508,482.33694,299.27615,482.36227,299.28992,482.36227C299.308,482.36227,299.37463,482.41296,299.3826,482.43396C299.40143,482.48175,299.41156,482.54694,299.41446,482.63165C299.4159,482.70914,299.41446,482.72433,299.40576,482.72433C299.39853,482.72433,299.39563,482.73303,299.39563,482.7526C299.39563,482.79312,299.41446,482.83948,299.44125,482.86627C299.47168,482.89597,299.51657,482.95605,299.5303,482.98648C299.5361,482.9995,299.54623,483.01834,299.55133,483.02847C299.5571,483.0386,299.5622,483.05237,299.5622,483.0596C299.5622,483.06757,299.56653,483.0835,299.57233,483.09583C299.57813,483.10886,299.58826,483.13855,299.5955,483.16245C299.60202,483.18634,299.62082,483.23196,299.63678,483.26382C299.67224,483.33334,299.69254,483.39197,299.69254,483.42746C299.69254,483.44196,299.6976,483.4579,299.70337,483.46295C299.7244,483.48032,299.71643,483.5216,299.68527,483.56287C299.66934,483.58386,299.6563,483.60342,299.6563,483.60632C299.6563,483.60995,299.64835,483.6201,299.63895,483.62878C299.62878,483.63818,299.61575,483.65628,299.61,483.6686C299.60056,483.6896,299.60056,483.6954,299.61,483.72363C299.6165,483.74173,299.62592,483.75912,299.63168,483.76202C299.63748,483.7649,299.64185,483.77216,299.64185,483.77722C299.64185,483.78302,299.64618,483.791,299.65198,483.79532C299.66428,483.80618,299.68964,483.8757,299.69904,483.9264C299.70847,483.97852,299.71643,483.9995,299.73523,484.01617C299.74323,484.02414,299.75046,484.03427,299.75046,484.04007C299.75046,484.04514,299.75336,484.0495,299.7577,484.0495C299.76132,484.0495,299.77435,484.0705,299.78665,484.09656C299.81635,484.161,299.812,484.1885,299.76276,484.23993L299.7273,484.2776L299.7251,484.42242C299.72366,484.50208,299.7193,484.58533,299.7157,484.60706C299.6983,484.69614,299.69034,484.79388,299.69904,484.81778C299.7186,484.875,299.7005,484.95465,299.65778,485.00024C299.62445,485.03574,299.5354,485.07556,299.45355,485.09222C299.43546,485.09586,299.40286,485.10382,299.38113,485.11032C299.35944,485.11685,299.32684,485.12555,299.30875,485.12915C299.29062,485.13348,299.27036,485.13928,299.26385,485.1429C299.2566,485.14725,299.232,485.15015,299.20953,485.15015C299.18637,485.15015,299.14655,485.15378,299.12192,485.1574C299.07993,485.16318,299.07196,485.16754,299.0314,485.20447C299.00677,485.2269,298.9843,485.24792,298.9807,485.2501C298.9778,485.253,298.95755,485.274,298.93582,485.29715C298.896,485.33987,298.8786,485.37537,298.85617,485.46225C298.84964,485.4876,298.8395,485.51727,298.83298,485.52887C298.8221,485.5506,298.825,485.58463,298.83804,485.58463C298.8424,485.58463,298.85834,485.59622,298.87427,485.6107C298.9054,485.63895,298.9199,485.64328,299.02777,485.65994C299.06543,485.66574,299.09512,485.6737,299.10236,485.68094C299.1089,485.68744,299.1183,485.69324,299.12408,485.69324C299.12915,485.69324,299.13495,485.69687,299.13638,485.70193C299.13858,485.707,299.16754,485.71207,299.21893,485.71497C299.29352,485.7193,299.30148,485.7215,299.3442,485.7461C299.36884,485.76132,299.392,485.7729,299.39563,485.7729C299.40286,485.7729,299.4427,485.81345,299.46732,485.84604C299.51004,485.9018,299.54553,485.96262,299.5571,485.99884C299.5839,486.08646,299.59116,486.11612,299.59116,486.13495C299.59116,486.16754,299.60562,486.20157,299.63748,486.24213C299.6534,486.26385,299.67804,486.29428,299.69034,486.3109C299.70337,486.32758,299.71423,486.3464,299.71423,486.35364C299.71423,486.3645,299.79752,486.44632,299.80838,486.44632C299.81128,486.44632,299.8243,486.46155,299.83734,486.48038C299.8598,486.5115,299.86197,486.51947,299.86487,486.57886L299.86847,486.64258L299.89456,486.65994C299.92206,486.67734,299.9496,486.70557,299.96985,486.736C299.9829,486.75482,299.98508,486.7968,299.97565,486.83807C299.97058,486.8598,299.97348,486.8714,299.99158,486.90906C300.00317,486.93365,300.01477,486.9684,300.01694,486.9858C300.02127,487.02707,300.0343,487.0278,300.07413,486.99088C300.0908,486.97495,300.11612,486.95685,300.12988,486.95032C300.14438,486.94382,300.15594,486.93512,300.15594,486.93222C300.15594,486.92932,300.1632,486.9228,300.1726,486.9192C300.18204,486.91486,300.211,486.89313,300.23706,486.87067C300.26385,486.8482,300.28848,486.8301,300.29282,486.8301C300.29715,486.8301,300.30078,486.8272,300.30078,486.8236C300.30078,486.8207,300.3131,486.8091,300.32758,486.7997C300.34277,486.78958,300.36957,486.76785,300.3877,486.75192C300.4058,486.73526,300.42316,486.7215,300.42606,486.7215C300.42896,486.7215,300.4391,486.71426,300.44778,486.70483C300.46155,486.69037,300.4999,486.6585,300.58752,486.58752C300.6006,486.5774,300.61362,486.56943,300.61795,486.56943C300.62228,486.56943,300.63025,486.56293,300.63605,486.55496C300.64618,486.5412,300.6679,486.5238,300.7635,486.45575C300.8055,486.42532,300.8562,486.38333,300.98508,486.2711C301.0908,486.1784,301.22913,486.01837,301.27472,485.93582C301.28995,485.9076,301.31165,485.87137,301.32324,485.85474C301.3341,485.83807,301.34354,485.81998,301.34354,485.81418C301.34354,485.80838,301.35004,485.79825,301.358,485.79102C301.36597,485.78375,301.37393,485.77145,301.37683,485.76276C301.37973,485.7548,301.39276,485.73163,301.4058,485.7128C301.41956,485.69324,301.43042,485.6715,301.43115,485.665C301.43115,485.65848,301.44055,485.63678,301.45215,485.61722C301.47604,485.57593,301.47964,485.56796,301.50574,485.50787C301.51587,485.48325,301.52457,485.45645,301.52457,485.44775C301.52457,485.42676,301.55786,485.3616,301.5825,485.3348C301.60202,485.31308,301.61725,485.24936,301.64764,485.06326C301.652,485.0372,301.6585,484.99954,301.66214,484.97998C301.69254,484.81055,301.7056,484.7403,301.715,484.69034C301.7302,484.61285,301.7686,484.40286,301.78235,484.3174C301.78885,484.27975,301.79828,484.22763,301.80408,484.20154C301.80914,484.17548,301.81927,484.12408,301.82507,484.08643C301.83157,484.04877,301.84027,484.0111,301.8446,484.00314C301.8562,483.9814,301.86417,483.9445,301.87213,483.87643C301.87576,483.8431,301.88226,483.81198,301.88663,483.80762C301.89023,483.80402,301.89386,483.79242,301.89386,483.78302C301.89386,483.76563,301.8953,483.7649,301.9337,483.77C301.9554,483.77216,301.98074,483.77722,301.98944,483.78082C301.99884,483.78445,302.03217,483.79315,302.06403,483.80038C302.0959,483.80762,302.12485,483.81558,302.12918,483.8192C302.1328,483.8221,302.14584,483.825,302.15887,483.825C302.17917,483.825,302.2074,483.8315,302.28198,483.8547C302.29428,483.8583,302.3124,483.8612,302.32327,483.8612C302.3334,483.8612,302.35077,483.86484,302.36237,483.86917C302.37323,483.87354,302.39423,483.88004,302.408,483.88367C302.42175,483.88657,302.45288,483.89453,302.47678,483.90103C302.50067,483.90756,302.5347,483.91553,302.5528,483.91913C302.61652,483.93146,302.6578,483.9416,302.6701,483.94812C302.67737,483.95245,302.6911,483.95535,302.70126,483.95535C302.71936,483.95535,302.79684,483.97345,302.82434,483.9843C302.84174,483.99084,302.95688,484.0198,302.99814,484.02777C303.01407,484.03067,303.03506,484.03644,303.0452,484.04007C303.0713,484.05093,303.10965,484.0618,303.13934,484.0676C303.1531,484.06976,303.17267,484.07483,303.1828,484.07846C303.19293,484.08136,303.22696,484.09003,303.25882,484.09656C303.29068,484.10306,303.32254,484.11176,303.32907,484.1154C303.3363,484.11902,303.3508,484.1219,303.36093,484.1219C303.3718,484.1219,303.3986,484.12695,303.42102,484.13348C303.44348,484.14,303.4746,484.14798,303.49054,484.1523C303.5579,484.16968,303.59048,484.182,303.60858,484.19794C303.62668,484.21313,303.62668,484.21603,303.6187,484.24283C303.61365,484.25876,303.61002,484.27902,303.61002,484.287C303.61002,484.2957,303.60568,484.31668,303.60062,484.33334C303.59482,484.3507,303.58685,484.3804,303.58252,484.4007C303.57816,484.42023,303.5695,484.4579,303.5637,484.48395C303.5579,484.51004,303.54703,484.55566,303.5405,484.58533C303.534,484.61502,303.5253,484.64255,303.5224,484.64688C303.5188,484.6505,303.5159,484.66354,303.5159,484.67657C303.5159,484.68887,303.513,484.70844,303.50864,484.72003C303.50214,484.73886,303.47244,484.86993,303.45795,484.9438C303.45508,484.95972,303.44638,484.9923,303.43985,485.0162C303.43262,485.0401,303.42465,485.07266,303.42175,485.0886C303.41812,485.10452,303.41016,485.14,303.40366,485.16824C303.39713,485.19577,303.38916,485.232,303.38556,485.24792C303.38266,485.26385,303.37686,485.28845,303.37253,485.30222C303.3689,485.31598,303.36166,485.34567,303.3573,485.3674C303.35297,485.3891,303.3421,485.43472,303.33414,485.46878C303.31458,485.5506,303.29938,485.61795,303.2943,485.65198C303.2914,485.66718,303.28635,485.68094,303.28345,485.6831C303.27982,485.68527,303.27692,485.6976,303.27692,485.7099C303.2762,485.72293,303.27185,485.75406,303.26608,485.78015C303.26028,485.8062,303.25302,485.8359,303.25085,485.84677C303.24796,485.8605,303.24942,485.86703,303.2545,485.86703C303.27405,485.86703,303.32834,485.91266,303.34644,485.9438C303.36526,485.97565,303.366,485.98,303.36093,486.04663C303.34644,486.2501,303.345,486.25952,303.32184,486.30078L303.3001,486.3406L303.31458,486.3797C303.3276,486.41446,303.32834,486.42462,303.32184,486.45648C303.31677,486.47675,303.31097,486.5115,303.30878,486.53323C303.3059,486.55496,303.29794,486.58246,303.28998,486.5948C303.27548,486.6194,303.26678,486.65488,303.2516,486.75046C303.24,486.8272,303.22986,486.8533,303.20016,486.8953C303.1712,486.9344,303.1263,486.98654,303.10748,487.00317C303.07996,487.02637,302.99234,487.10892,302.98438,487.11905C302.98004,487.12485,302.9612,487.14438,302.94165,487.1632C302.92282,487.1813,302.90762,487.19943,302.90762,487.20377C302.9069,487.21173,302.8613,487.23563,302.84607,487.23563C302.84027,487.23563,302.8323,487.24216,302.82797,487.25012C302.82364,487.2581,302.8048,487.27182,302.78598,487.28125C302.76715,487.29065,302.73746,487.30588,302.71936,487.31528C302.70126,487.32397,302.68604,487.3341,302.6846,487.33627C302.68027,487.34787,302.62738,487.4,302.60855,487.4116C302.59772,487.41882,302.58902,487.42896,302.58902,487.43475C302.58902,487.44055,302.5854,487.44562,302.5818,487.44562C302.56802,487.44562,302.41522,487.61505,302.41522,487.631C302.41522,487.63388,302.40726,487.64474,302.39786,487.6549C302.3877,487.66577,302.3754,487.6817,302.37033,487.69183C302.34354,487.7389,302.33124,487.757,302.32327,487.757C302.3124,487.757,302.27835,487.80118,302.2494,487.85257C302.23636,487.87503,302.2219,487.8953,302.21683,487.89676C302.20596,487.9011,302.15817,487.9612,302.05173,488.10312C302.01697,488.1502,301.9822,488.19437,301.97424,488.20233C301.96698,488.2103,301.9525,488.22913,301.94238,488.24432C301.93222,488.25952,301.9156,488.27835,301.90472,488.28632C301.8946,488.29428,301.88663,488.30515,301.88663,488.3102C301.88663,488.316,301.87503,488.33267,301.86127,488.34787C301.8475,488.3638,301.82578,488.38843,301.81274,488.40363C301.7628,488.46085,301.54846,488.67664,301.5412,488.67664C301.53687,488.67664,301.5318,488.68314,301.52963,488.6911C301.52673,488.70126,301.52963,488.7056,301.5383,488.7056C301.55206,488.7056,301.60928,488.68823,301.64404,488.673C301.68314,488.65637,301.715,488.6491,301.78162,488.6404C301.90182,488.62448,302.051,488.65854,302.10022,488.71283C302.10748,488.72153,302.13498,488.74252,302.1596,488.76062C302.18784,488.7809,302.20667,488.79974,302.20956,488.8113C302.21246,488.82147,302.22623,488.8439,302.24072,488.86127C302.316,488.95178,302.34137,488.99887,302.3964,489.1473C302.41522,489.19727,302.44128,489.26172,302.45505,489.29068C302.4688,489.31964,302.48257,489.35223,302.48474,489.3631C302.48764,489.37396,302.4927,489.38626,302.49634,489.39133C302.505,489.4022,302.52313,489.55573,302.52383,489.61945C302.52383,489.6904,302.4992,489.8012,302.46808,489.87143C302.45795,489.89316,302.4384,489.94385,302.42465,489.98367C302.41016,490.0235,302.3964,490.059,302.3935,490.06332C302.3906,490.06696,302.38553,490.08432,302.38263,490.10098C302.37973,490.11835,302.37466,490.13358,302.37106,490.13647C302.36743,490.13864,302.36453,490.14804,302.36453,490.15747C302.36453,490.16687,302.36163,490.18207,302.35803,490.1915C302.3544,490.2009,302.3457,490.22916,302.3392,490.25522C302.31384,490.3508,302.2248,490.55066,302.1596,490.65927C302.14368,490.68536,302.1299,490.71793,302.12775,490.73242C302.12485,490.75415,302.127,490.75995,302.14078,490.76572C302.1502,490.76935,302.16467,490.7831,302.17264,490.79614C302.21753,490.86783,302.22623,490.8845,302.23346,490.9113C302.23782,490.92792,302.2458,490.9453,302.2516,490.94965C302.26968,490.96484,302.27982,491.02063,302.27618,491.08795C302.27258,491.1437,302.26968,491.1553,302.25302,491.17487C302.2429,491.18716,302.2342,491.20166,302.2342,491.206C302.2342,491.2176,302.127,491.31824,302.1082,491.32404C302.10022,491.32693,302.08865,491.3349,302.0836,491.34213C302.0785,491.3501,302.07056,491.3559,302.0662,491.3559C302.0575,491.3559,301.96918,491.39355,301.9337,491.41235C301.9214,491.41888,301.90182,491.4348,301.88953,491.44785C301.87646,491.4616,301.85983,491.47174,301.84967,491.47174C301.83594,491.47174,301.82797,491.4797,301.81274,491.51013C301.80188,491.5304,301.78815,491.56372,301.78162,491.58398C301.7751,491.60355,301.76425,491.62598,301.75845,491.63324C301.7512,491.64117,301.74902,491.64844,301.7534,491.65277C301.75916,491.65857,301.81854,491.67017,301.89023,491.67883C301.90616,491.68103,301.92572,491.68536,301.9337,491.689C301.95395,491.69696,302.03867,491.7252,302.0604,491.73026C302.07056,491.73242,302.0814,491.73895,302.08575,491.7433C302.08936,491.74835,302.10965,491.75632,302.13065,491.76138C302.15164,491.76575,302.1719,491.7744,302.177,491.7802C302.18134,491.786,302.19293,491.79034,302.20233,491.79034C302.21246,491.79034,302.2197,491.7947,302.2197,491.8005C302.2197,491.80627,302.22766,491.8128,302.23782,491.81497C302.26968,491.82294,302.3993,491.91562,302.40002,491.93085C302.40076,491.93445,302.4116,491.95038,302.42535,491.96704C302.4384,491.9837,302.4536,492.00977,302.45938,492.0257C302.46448,492.04163,302.47314,492.05972,302.47894,492.067C302.4985,492.09088,302.48257,492.30304,302.45795,492.34793C302.45505,492.35373,302.44345,492.37473,302.43262,492.395C302.42175,492.41455,302.40582,492.4406,302.3964,492.45148C302.387,492.46307,302.37903,492.47467,302.37903,492.47754C302.37903,492.49203,302.13065,492.73172,302.11545,492.73172C302.10965,492.73172,302.0959,492.7397,302.0843,492.74908C302.05896,492.7701,301.9851,492.80414,301.96408,492.80414C301.95612,492.80414,301.94238,492.80994,301.93442,492.81717C301.92572,492.82513,301.883,492.84323,301.83954,492.85773C301.79538,492.87292,301.75482,492.88885,301.74902,492.89392C301.74323,492.89972,301.715,492.91058,301.68747,492.91855C301.65924,492.92725,301.61072,492.94968,301.5796,492.96777C301.54846,492.9866,301.50934,493.0047,301.49268,493.0076C301.47604,493.0105,301.4449,493.01846,301.4232,493.025C301.3725,493.0402,301.0336,493.0431,300.93802,493.02933C300.904,493.02426,300.84534,493.01776,300.80695,493.01486C300.76855,493.01123,300.7331,493.0069,300.72873,493.004C300.71933,492.9982,300.52527,492.97864,300.43835,492.97504C300.4087,492.97357,300.36957,492.96777,300.35147,492.9627C300.33337,492.95764,300.30585,492.95258,300.28992,492.95184C300.19724,492.94824,300.09732,492.9323,300.04083,492.91275C299.92786,492.87436,299.81998,492.83527,299.79172,492.82297C299.75986,492.8092,299.68674,492.79907,299.57303,492.79327C299.52887,492.7911,299.46368,492.7853,299.42822,492.7795C299.392,492.7737,299.33698,492.765,299.3051,492.76068C299.27325,492.75635,299.2291,492.74838,299.20737,492.74258C299.18564,492.73752,299.14148,492.7281,299.1096,492.72086C299.04807,492.7071,299.00967,492.6977,298.92856,492.67523C298.90033,492.66727,298.8518,492.65497,298.81995,492.64844C298.7881,492.64194,298.74826,492.63324,298.73233,492.6296C298.71567,492.626,298.66428,492.6202,298.61792,492.61584C298.51364,492.60718,298.4065,492.59195,298.30798,492.57315C298.26672,492.5652,298.20227,492.5565,298.1646,492.55432C298.12695,492.55142,298.0857,492.54636,298.0741,492.542C298.05167,492.53403,298.04803,492.53476,297.87134,492.56082C297.77216,492.57532,297.71133,492.57675,297.56723,492.56662C297.39777,492.55502,297.13998,492.54126,297.09653,492.54126C297.07626,492.54126,296.98865,492.5384,296.90103,492.53476C296.74173,492.52823,296.6512,492.51666,296.4376,492.47467C296.3898,492.46524,296.30145,492.45074,296.24207,492.44208C296.153,492.42975,295.8735,492.36823,295.7859,492.34143C295.7055,492.3175,295.5824,492.21976,295.5259,492.13504C295.51144,492.1133,295.49622,492.09305,295.49188,492.09088C295.48825,492.08798,295.43756,492.02716,295.37964,491.95544C295.2942,491.849,295.27536,491.82077,295.27536,491.80194C295.27536,491.7889,295.27246,491.77588,295.26886,491.77225C295.26596,491.7679,295.25943,491.75198,295.2551,491.73605C295.25146,491.72012,295.24133,491.68173,295.23337,491.65134C295.22467,491.6209,295.21454,491.56226,295.2102,491.521C295.19427,491.37183,295.17618,491.31387,295.13852,491.29218C295.1262,491.28564,295.10376,491.2603,295.08783,491.2357C295.05887,491.1915,295.05887,491.1915,295.0509,491.09085C295.02917,490.79904,295.02264,490.7715,294.96182,490.7078C294.94662,490.69186,294.92853,490.66724,294.92273,490.65347C294.91693,490.63974,294.9039,490.6187,294.89377,490.60715C294.85464,490.5608,294.84814,490.5369,294.84814,490.44568C294.84814,490.36383,294.85828,490.31097,294.87494,490.29938C294.8952,490.28635,294.89014,490.2697,294.86044,490.25232C294.82208,490.2299,294.7837,490.18933,294.75906,490.14514C294.74097,490.11475,294.73953,490.1046,294.73953,490.0351C294.73953,489.9931,294.74243,489.9576,294.74603,489.95544C294.74893,489.95325,294.754,489.93298,294.75616,489.91052C294.75836,489.8881,294.76413,489.86563,294.76776,489.86203C294.7721,489.85767,294.77573,489.8461,294.77573,489.83594C294.77573,489.8251,294.7837,489.79974,294.79382,489.77875C294.80396,489.75702,294.81192,489.7346,294.81192,489.72806C294.81192,489.72083,294.81702,489.70633,294.82278,489.69476C294.82858,489.6839,294.83365,489.67084,294.83365,489.66577C294.83365,489.66144,294.8503,489.6303,294.87057,489.59625C294.92563,489.50574,294.9278,489.50067,294.93866,489.43915C294.94373,489.408,294.95386,489.35657,294.9604,489.3247C294.9669,489.29285,294.97195,489.24146,294.97125,489.2103C294.97052,489.16904,294.97342,489.14877,294.98138,489.13644C294.98862,489.12558,294.99442,489.09518,294.9973,489.0626C295.00165,488.9967,295.02628,488.84247,295.03787,488.8106C295.04147,488.79828,295.05234,488.75266,295.06177,488.7085C295.07117,488.6643,295.08347,488.61798,295.09,488.60565C295.09653,488.59335,295.1016,488.5738,295.1016,488.56223C295.1016,488.55063,295.1081,488.5224,295.11606,488.4985C295.132,488.44998,295.1349,488.4087,295.12186,488.39566C295.1139,488.3877,295.11533,488.37177,295.1378,488.21683C295.14142,488.19293,295.14648,488.15237,295.14865,488.1263C295.15082,488.10022,295.15588,488.05606,295.16025,488.02853C295.16385,488.0003,295.17108,487.95468,295.1747,487.92715C295.1834,487.8685,295.20078,487.78305,295.2102,487.757C295.2131,487.74686,295.2218,487.71283,295.2283,487.68097C295.23553,487.6491,295.24496,487.61,295.25003,487.59406C295.2551,487.57813,295.26523,487.5441,295.27246,487.51804C295.279,487.49197,295.2877,487.46808,295.2913,487.46445C295.2942,487.4601,295.2971,487.44998,295.2971,487.44055C295.2971,487.43185,295.3,487.4174,295.30362,487.40796C295.30652,487.39856,295.3152,487.3732,295.32098,487.3515C295.34198,487.2798,295.41803,487.05386,295.43396,487.01477C295.43756,487.0068,295.44553,486.9858,295.4528,486.9677C295.4593,486.9496,295.47305,486.91846,295.48248,486.89746C295.49188,486.8772,295.49985,486.8569,295.49985,486.85257C295.49985,486.84604,295.52448,486.79028,295.5614,486.71063C295.5672,486.69833,295.58167,486.6643,295.59326,486.6346C295.60486,486.60492,295.6237,486.5593,295.63525,486.53323C295.64685,486.50717,295.6606,486.47458,295.66638,486.46082C295.67148,486.44705,295.6787,486.4326,295.68234,486.42822C295.6852,486.42462,295.6881,486.41376,295.6881,486.40363C295.6881,486.3732,295.70404,486.33698,295.75183,486.2588C295.7772,486.2175,295.81918,486.14,295.84454,486.08646C295.8706,486.03287,295.8945,485.98508,295.89883,485.9807C295.9032,485.97565,295.91693,485.95465,295.92926,485.93292C295.9423,485.9112,295.95895,485.8837,295.96692,485.87067C295.97488,485.85834,295.9879,485.83734,295.99588,485.8243C296.00385,485.812,296.03207,485.77072,296.05887,485.73306C296.0864,485.6954,296.10812,485.66284,296.10812,485.65994C296.10812,485.65778,296.11752,485.644,296.12982,485.63025C296.14142,485.61722,296.15155,485.6013,296.15155,485.5955C296.15155,485.5897,296.15808,485.581,296.16678,485.57523C296.17474,485.56943,296.19138,485.5506,296.2044,485.5332C296.21674,485.51584,296.2428,485.48325,296.26163,485.46082C296.28046,485.43835,296.2964,485.41736,296.2964,485.41446C296.2964,485.4094,296.34274,485.35217,296.3753,485.3174C296.49118,485.19434,296.51144,485.1762,296.6179,485.10815C296.63818,485.09586,296.65698,485.085,296.6606,485.085C296.66425,485.085,296.67654,485.07703,296.68887,485.0669C296.70044,485.05673,296.71564,485.04877,296.7229,485.04877C296.7294,485.04877,296.7381,485.04587,296.74243,485.04227C296.74606,485.0379,296.77792,485.0256,296.81415,485.0133C296.8496,485.0017,296.88873,484.98868,296.90103,484.9843C296.95605,484.96622,297.00748,484.95898,297.02194,484.96838C297.0321,484.9749,297.04224,484.9749,297.0589,484.96985C297.09726,484.95755,297.21457,484.9474,297.23413,484.95465C297.24933,484.96045,297.25513,484.95682,297.28842,484.91843C297.33405,484.86557,297.4108,484.81705,297.4919,484.7881C297.54187,484.77072,297.56433,484.76636,297.61792,484.76636L297.68307,484.76636L297.71277,484.72076C297.7287,484.69614,297.7468,484.66428,297.75186,484.6505C297.75693,484.63675,297.76636,484.61865,297.77142,484.6107C297.78882,484.5839,297.78302,484.55057,297.7555,484.52307C297.74173,484.5093,297.73016,484.4919,297.73016,484.48468C297.73016,484.47745,297.72363,484.4456,297.71567,484.41443C297.7077,484.38257,297.70117,484.3471,297.70117,484.33408C297.70117,484.32175,297.6925,484.29062,297.68234,484.2653C297.65268,484.19357,297.65268,484.19357,297.63818,484.14578C297.63095,484.12045,297.623,484.1002,297.61935,484.1002C297.61646,484.1002,297.6056,484.08136,297.59546,484.05817C297.58533,484.03574,297.5723,484.0082,297.5665,483.99734C297.5607,483.9872,297.55637,483.97128,297.55637,483.9626C297.55637,483.95392,297.55273,483.94016,297.54767,483.93146C297.54044,483.91696,297.5252,483.8605,297.5042,483.7642C297.4984,483.7403,297.489,483.72217,297.47455,483.70914C297.45572,483.6925,297.4521,483.68307,297.4463,483.62878C297.44266,483.59546,297.43906,483.55637,297.43906,483.5426C297.43906,483.52884,297.43253,483.4492,297.42456,483.3659C297.40646,483.18054,297.40936,483.077,297.43616,482.9452C297.45425,482.85397,297.45715,482.846,297.54333,482.67654C297.623,482.5194,297.63455,482.50058,297.65918,482.4861C297.67438,482.47742,297.6867,482.46655,297.6867,482.46075C297.6867,482.4492,297.71204,482.42746,297.74463,482.4108C297.7584,482.40356,297.78592,482.37894,297.80545,482.35504C297.825,482.33115,297.84818,482.30942,297.85614,482.30725C297.87933,482.30002,297.92133,482.26453,297.94086,482.23557C297.96042,482.20587,298.01764,482.1711,298.10306,482.13782C298.13495,482.1255,298.16608,482.1103,298.17188,482.10522C298.17764,482.10016,298.20227,482.09,298.22617,482.08276C298.2834,482.0661,298.518,482.0596,298.53247,482.07407 Z M301.87793,486.33047C301.81638,486.37827,301.74106,486.42026,301.70413,486.42822C301.6911,486.43112,301.66357,486.44562,301.64404,486.46082C301.59695,486.4963,301.52383,486.54047,301.5108,486.54047C301.4963,486.54047,301.4326,486.59985,301.39783,486.64548C301.38623,486.6614,301.37177,486.67877,301.36523,486.6853C301.34064,486.7099,301.2798,486.81058,301.2313,486.90616C301.20303,486.9619,301.1748,487.0155,301.16827,487.02563C301.09442,487.14148,301.07416,487.17047,301.06836,487.17047C301.06473,487.17047,301.05676,487.1813,301.05096,487.19434C301.04156,487.21826,300.97568,487.30948,300.9655,487.31384C300.96265,487.31528,300.95685,487.32687,300.95248,487.33917C300.94888,487.3522,300.9344,487.3696,300.92062,487.37827C300.90543,487.38843,300.89383,487.40216,300.89093,487.41522C300.88876,487.42752,300.875,487.44708,300.86127,487.45938C300.8475,487.47168,300.82867,487.49487,300.81854,487.5108C300.8084,487.52673,300.7968,487.53976,300.79318,487.53976C300.78958,487.53976,300.78088,487.55063,300.77435,487.56293C300.76785,487.57596,300.7396,487.61145,300.7121,487.64114C300.68457,487.67084,300.66068,487.7027,300.6585,487.71136C300.6556,487.7208,300.64908,487.72803,300.6433,487.72803C300.61505,487.72803,300.59116,487.7939,300.61578,487.80334C300.62158,487.8055,300.62665,487.81348,300.62665,487.8207C300.62665,487.82867,300.62158,487.8388,300.61578,487.8439C300.5948,487.86127,300.60345,487.8714,300.63895,487.8707C300.6889,487.86923,300.757,487.8982,300.757,487.9214C300.757,487.93442,300.76132,487.93802,300.77582,487.93802C300.8033,487.93802,300.8598,487.96628,300.86343,487.9822C300.86777,487.9974,300.86777,487.9974,300.92352,487.99597C300.95322,487.99524,300.96915,487.99017,300.98654,487.97714C300.99884,487.9677,301.01114,487.95975,301.01334,487.95975C301.022,487.95975,301.08282,487.91486,301.08282,487.90833C301.08282,487.90472,301.08862,487.90182,301.0966,487.90182C301.10385,487.90182,301.11398,487.89676,301.11905,487.89096C301.1241,487.88516,301.13208,487.8801,301.1364,487.8801C301.14078,487.8801,301.15887,487.8685,301.17624,487.85474C301.19363,487.841,301.21173,487.8294,301.21606,487.8294C301.22043,487.8294,301.2407,487.81564,301.26025,487.7997C301.28052,487.78305,301.30515,487.76642,301.316,487.7628C301.32687,487.75916,301.337,487.74902,301.33917,487.73816C301.34207,487.7273,301.3493,487.7208,301.35727,487.7208C301.36453,487.7208,301.37466,487.71573,301.37973,487.70993C301.3848,487.70413,301.39493,487.69907,301.40216,487.69907C301.40942,487.69907,301.42245,487.68964,301.43115,487.67807C301.43982,487.66647,301.4543,487.6549,301.4637,487.6527C301.47964,487.64838,301.63318,487.49994,301.6766,487.44635C301.68677,487.43402,301.71356,487.40363,301.73672,487.379C301.7599,487.35367,301.79465,487.31528,301.81274,487.29355C301.83087,487.27182,301.86923,487.22913,301.89746,487.19943C301.94165,487.15308,301.96338,487.12555,302.0213,487.04083C302.02563,487.03433,302.04156,487.0097,302.0568,486.9858C302.072,486.9619,302.09225,486.9344,302.10095,486.92426C302.1444,486.87573,302.1712,486.78812,302.14948,486.7664C302.1444,486.76132,302.14005,486.74976,302.14005,486.74106C302.14005,486.72076,302.17554,486.5622,302.1835,486.5477C302.18713,486.54193,302.19293,486.5202,302.19653,486.50064C302.2009,486.48038,302.20886,486.44562,302.21536,486.42242C302.23276,486.35944,302.2313,486.35437,302.1958,486.34567C302.15887,486.33698,302.08936,486.3196,302.02057,486.3015C301.94308,486.28195,301.9402,486.28268,301.87793,486.33047 Z M299.49048,488.694C299.41373,488.778,299.36594,488.81784,299.3174,488.8374C299.2682,488.85693,299.2052,488.86417,299.1965,488.85043C299.19434,488.84607,299.17984,488.84317,299.16534,488.84317C299.15015,488.84317,299.13132,488.83884,299.12335,488.83304C299.09366,488.81204,299.04807,488.82,299.04807,488.8468C299.04807,488.85187,299.0401,488.8736,299.03067,488.8946C299.02127,488.91705,299.01184,488.95688,299.00894,488.98657C299.00677,489.01553,298.99808,489.05316,298.99084,489.06982C298.98288,489.0865,298.9749,489.11328,298.97275,489.1292C298.97058,489.14514,298.96262,489.17773,298.95392,489.20163C298.94595,489.22552,298.93942,489.25522,298.93942,489.26678C298.93942,489.2972,298.8989,489.4109,298.8757,489.44708C298.86484,489.46375,298.84314,489.49127,298.8272,489.50793C298.81128,489.5253,298.79535,489.54486,298.79172,489.55136C298.7881,489.55862,298.77722,489.57236,298.7671,489.58322C298.75696,489.5941,298.75043,489.60495,298.75262,489.60712C298.76056,489.6158,298.8366,489.61148,298.86124,489.60062C298.87643,489.5941,298.8996,489.58902,298.91336,489.58902C298.92712,489.58902,298.96838,489.57745,299.0046,489.5637C299.0408,489.54993,299.07413,489.53833,299.07773,489.53833C299.0821,489.53833,299.09875,489.53183,299.1154,489.52457C299.13205,489.5166,299.1726,489.50357,299.20447,489.4956C299.2863,489.4746,299.33408,489.45508,299.38477,489.42175C299.5028,489.345,299.7128,489.27475,299.73236,489.3066C299.73813,489.3153,299.77725,489.31604,299.78232,489.30734C299.78738,489.3001,299.86197,489.27332,299.89526,489.26752C299.90903,489.26535,299.93002,489.25812,299.94162,489.25232C299.95248,489.24652,299.96985,489.24146,299.97855,489.24146C299.98798,489.24146,300.0046,489.2364,300.0162,489.2306C300.02707,489.2248,300.0546,489.21176,300.0763,489.20163C300.12845,489.177,300.14365,489.1676,300.15814,489.15384C300.16827,489.14297,300.1661,489.1415,300.12628,489.1379C300.09296,489.135,300.0763,489.12848,300.0495,489.10965C300.02997,489.0959,300.01114,489.0771,300.0068,489.0684C299.99884,489.05316,299.92786,489.01117,299.88876,488.99887C299.87283,488.9938,299.80838,488.95325,299.80115,488.94385C299.79898,488.94165,299.79028,488.93732,299.78085,488.93442C299.7722,488.93152,299.76492,488.92572,299.76492,488.92212C299.76492,488.9185,299.7606,488.9156,299.75552,488.9156C299.74103,488.91486,299.7099,488.88446,299.7005,488.86057C299.69324,488.84247,299.69324,488.83087,299.7005,488.80624C299.70557,488.78888,299.7128,488.77005,299.71643,488.76498C299.7244,488.75412,299.70337,488.72733,299.68744,488.72733C299.67224,488.72733,299.62082,488.68967,299.6165,488.6759C299.61432,488.66867,299.6042,488.65564,299.59406,488.6455L299.57593,488.62668L299.54987,488.64188C299.5361,488.65057,299.5093,488.67374,299.49048,488.694 Z"/> </g> <g style="fill:rgb(0,0,0); fill-opacity:1.0; stroke-linejoin: miter"> <path d="M299.46948,492.80197C299.46442,492.80414,299.45792,492.8034,299.45572,492.80124C299.45285,492.79907,299.45718,492.79688,299.46515,492.7976C299.4731,492.7976,299.47528,492.79977,299.46948,492.80197 Z"/> </g> </g> </svg>